<svg xmlns="http://www.w3.org/2000/svg" viewBox="0 0 64 64"><defs><linearGradient id="g" x1="0" y1="0" x2="1" y2="1"><stop offset="0" stop-color="#3C6770"/><stop offset="1" stop-color="#1F383F"/></linearGradient></defs><rect width="64" height="64" rx="16" fill="url(#g)"/><path d="M22 19 32 11.5 42 19" fill="none" stroke="#F09F72" stroke-width="3.6" stroke-linecap="round" stroke-linejoin="round"/><g fill="none" stroke="#fff" stroke-width="3.6" stroke-linecap="round" stroke-linejoin="round"><path d="M21 29.2c-.6-1.9-2.2-3.2-4.7-3.2-2.9 0-4.8 1.6-4.8 4 0 2.4 1.9 3.2 4.8 3.9 3 .7 5 1.6 5 4.1 0 2.5-2.1 4-5 4-2.7 0-4.5-1.2-5.3-3.2"/><path d="M27 26v16M36 26l-8 9M30.5 33.2 36.5 42"/><path d="M40.5 26h12M46.5 26v16"/></g><path d="M14 50.5Q32 46.5 50 50.5" fill="none" stroke="#F09F72" stroke-width="3" stroke-linecap="round"/></svg>
